<svg width="203" height="144" viewBox="0 0 203 144" fill="none" xmlns="http://www.w3.org/2000/svg">
<path d="M91.3924 141.697H10.0081C6.06114 141.697 3.67034 137.338 5.79165 134.01L87.1759 6.31274C89.1412 3.22909 93.6436 3.22909 95.6089 6.31274L176.993 134.01C179.114 137.338 176.723 141.697 172.776 141.697H91.3924Z" fill="#0079C2"/>
<path d="M81.5 67C83.433 67 85 68.567 85 70.5C85 72.433 83.433 74 81.5 74C79.567 74 78 72.433 78 70.5C78 68.567 79.567 67 81.5 67Z" fill="black"/>
<path d="M113.5 67C115.433 67 117 68.567 117 70.5C117 72.433 115.433 74 113.5 74C111.567 74 110 72.433 110 70.5C110 68.567 111.567 67 113.5 67Z" fill="black"/>
<path d="M72.5 89.5C85.2025 89.5 95.5 79.2025 95.5 66.5C95.5 53.7975 85.2025 43.5 72.5 43.5C59.7975 43.5 49.5 53.7975 49.5 66.5C49.5 79.2025 59.7975 89.5 72.5 89.5Z" stroke="white" stroke-width="2"/>
<path d="M124.5 89.5C137.203 89.5 147.5 79.2025 147.5 66.5C147.5 53.7975 137.203 43.5 124.5 43.5C111.797 43.5 101.5 53.7975 101.5 66.5C101.5 79.2025 111.797 89.5 124.5 89.5Z" stroke="white" stroke-width="2"/>
<path d="M95.5 67.9999C97.6893 66.5125 98.9638 66.1329 101.5 67.9999" stroke="white" stroke-width="2"/>
<path d="M91 91C95.3336 94.729 99.7224 94.8075 104 91" stroke="black" stroke-width="2" stroke-linecap="round"/>
<path d="M54 116L63.5 143M150.5 109.5C168.859 115.327 172.23 119.852 198 96.5M198 96.5L196.186 94.3831C195.672 93.784 196.022 92.854 196.803 92.7424L200.58 92.2028C201.269 92.1044 201.845 92.722 201.7 93.4023L200.885 97.2027C200.719 97.9776 199.761 98.2606 199.2 97.7002L198 96.5Z" stroke="black" stroke-width="2"/>
</svg>
