<svg width="214" height="187" viewBox="0 0 214 187" fill="none" xmlns="http://www.w3.org/2000/svg">
<g clip-path="url(#clip0_143_185)">
<path d="M127.235 161.045L49.0703 183.708C45.2794 184.807 41.7693 181.286 42.88 177.499L85.4856 32.1901C86.5145 28.6812 90.8388 27.4274 93.5851 29.8418L207.31 129.825C210.274 132.431 209.191 137.283 205.4 138.382L127.235 161.045Z" fill="#7AC142"/>
<path d="M100.662 110.09C105.136 114.243 110.968 112.92 113.099 106.549C113.338 105.833 112.657 105.192 111.932 105.402L101.079 108.549C100.386 108.75 100.132 109.599 100.662 110.09Z" stroke="black" stroke-width="2"/>
<path d="M78.9628 98.8231C81.708 94.1245 86.1306 92.3261 91.4486 95.203M112.578 89.0767C115.324 84.3782 119.746 82.5797 125.064 85.4567" stroke="black" stroke-width="3"/>
<ellipse cx="83.1114" cy="105.95" rx="6" ry="4" transform="rotate(-16.1688 83.1114 105.95)" fill="#D83737" fill-opacity="0.49"/>
<ellipse cx="126.332" cy="93.4188" rx="6" ry="4" transform="rotate(-16.1688 126.332 93.4188)" fill="#D83737" fill-opacity="0.49"/>
<path d="M69.8863 127.588L58.7804 116.158L47.6744 104.728M41.3341 101.794L44.2839 98.8115C44.6524 98.439 45.2459 98.414 45.6444 98.7542L49.0042 101.623C49.446 102.001 49.4744 102.674 49.0658 103.087L46.116 106.07C45.7475 106.442 45.154 106.467 44.7556 106.127L41.3957 103.258C40.9539 102.881 40.9255 102.207 41.3341 101.794Z" stroke="black" stroke-width="2" stroke-linecap="round"/>
</g>
<defs>
<clipPath id="clip0_143_185">
<rect width="181" height="142" fill="white" transform="translate(0 50.4027) rotate(-16.1688)"/>
</clipPath>
</defs>
</svg>
