<svg width="279" height="245" viewBox="0 0 279 245" fill="none" xmlns="http://www.w3.org/2000/svg">
<rect x="22.0323" y="19.3954" width="35.9174" height="35.9174" rx="3" stroke="white" stroke-width="4"/>
<rect x="22.0321" y="87.255" width="35.9174" height="35.9174" rx="3" stroke="white" stroke-width="4"/>
<rect x="30.1938" y="27.3024" width="19.1938" height="19.1938" rx="3" stroke="white" stroke-width="4"/>
<rect x="30.1938" y="95.8295" width="19.1938" height="19.1938" rx="3" stroke="white" stroke-width="4"/>
<rect x="88.4402" y="19.3954" width="35.9174" height="35.9174" rx="3" stroke="white" stroke-width="4"/>
<rect x="96.6124" y="27.3024" width="19.1938" height="19.1938" rx="3" stroke="white" stroke-width="4"/>
<line x1="20.0233" y1="64.4756" x2="69.3928" y2="64.4756" stroke="white" stroke-width="4"/>
<line x1="20.0511" y1="73.6386" x2="38.559" y2="73.8201" stroke="white" stroke-width="4"/>
<line x1="36.9554" y1="88.1615" x2="36.9554" y2="71.687" stroke="white" stroke-width="4"/>
<line x1="46.0651" y1="86.7156" x2="46.0651" y2="64.1916" stroke="white" stroke-width="4"/>
<line x1="46.8857" y1="73.8199" x2="126.358" y2="73.8199" stroke="white" stroke-width="4"/>
<line x1="67.3846" y1="64.209" x2="67.3846" y2="17.7582" stroke="white" stroke-width="4"/>
<line x1="67.5702" y1="41.1603" x2="89.3433" y2="41.1603" stroke="white" stroke-width="4"/>
<line x1="76.6382" y1="125.173" x2="76.6382" y2="41.7067" stroke="white" stroke-width="4"/>
<line x1="118.197" y1="56.2241" x2="118.197" y2="72.9168" stroke="white" stroke-width="4"/>
<line x1="107.665" y1="75.8267" x2="107.665" y2="56.2174" stroke="white" stroke-width="4"/>
<line x1="98.5927" y1="63.5406" x2="98.5927" y2="56.2241" stroke="white" stroke-width="4"/>
<line x1="88.3953" y1="86.4496" x2="88.3953" y2="65.3643" stroke="white" stroke-width="4"/>
<line x1="83.5371" y1="123.172" x2="126.358" y2="123.172" stroke="white" stroke-width="4"/>
<line x1="84.168" y1="125.177" x2="84.168" y2="101.582" stroke="white" stroke-width="4"/>
<line x1="81.9613" y1="102.372" x2="107.264" y2="102.372" stroke="white" stroke-width="4"/>
<line x1="105.133" y1="101.585" x2="105.133" y2="125.172" stroke="white" stroke-width="4"/>
<line x1="69.0217" y1="94.1415" x2="90.7948" y2="94.1415" stroke="white" stroke-width="4"/>
<line x1="89.4496" y1="102.681" x2="89.4496" y2="91.7209" stroke="white" stroke-width="4"/>
<line x1="89.3433" y1="84.0496" x2="126.359" y2="84.0496" stroke="white" stroke-width="4"/>
<line x1="98.0569" y1="101.596" x2="98.0569" y2="91.7179" stroke="white" stroke-width="4"/>
<line x1="97.3268" y1="94.1415" x2="126.358" y2="94.1415" stroke="white" stroke-width="4"/>
<line x1="124.956" y1="124.087" x2="124.956" y2="91.7175" stroke="white" stroke-width="4"/>
<line x1="112.754" y1="93.2384" x2="112.754" y2="107.754" stroke="white" stroke-width="4"/>
<line x1="110.754" y1="107.205" x2="124.906" y2="107.205" stroke="white" stroke-width="4"/>
<line x1="111.657" y1="123.721" x2="111.657" y2="113.56" stroke="white" stroke-width="4"/>
<line x1="86.1484" y1="64.4188" x2="100.565" y2="64.2036" stroke="white" stroke-width="4"/>
<line x1="118.733" y1="64.2035" x2="126.362" y2="64.2035" stroke="white" stroke-width="4"/>
<path d="M77.0052 17.7583V35.1768" stroke="white" stroke-width="4"/>
<line x1="77.0052" y1="33.1768" x2="87.8917" y2="33.1768" stroke="white" stroke-width="4"/>
<line x1="77.0052" y1="26.2476" x2="83.5371" y2="26.2476" stroke="white" stroke-width="4"/>
<line x1="76.6899" y1="20.1395" x2="83.0155" y2="20.1395" stroke="white" stroke-width="4"/>
<line x1="20.9352" y1="81.6261" x2="20.9352" y2="59.853" stroke="white" stroke-width="4"/>
<line x1="56.5063" y1="65.2963" x2="56.5063" y2="74.3684" stroke="white" stroke-width="4"/>
<line x1="64.8527" y1="65.2963" x2="64.8527" y2="74.3684" stroke="white" stroke-width="4"/>
<line x1="76.2794" y1="104.708" x2="69.0217" y2="104.708" stroke="white" stroke-width="4"/>
<line x1="76.2794" y1="116.649" x2="69.0217" y2="116.649" stroke="white" stroke-width="4"/>
<line x1="75.9165" y1="84.3519" x2="69.0217" y2="84.3519" stroke="white" stroke-width="4"/>
<line x1="59.2238" y1="90.4438" x2="66.4815" y2="90.4438" stroke="white" stroke-width="4"/>
<line x1="59.2238" y1="100.276" x2="66.4815" y2="100.276" stroke="white" stroke-width="4"/>
<line x1="59.2238" y1="109.746" x2="66.4815" y2="109.746" stroke="white" stroke-width="4"/>
<line x1="59.2238" y1="120.995" x2="66.4815" y2="120.995" stroke="white" stroke-width="4"/>
<line x1="7.16275" y1="27.6744" x2="7.16275" y2="2.28882e-05" stroke="white" stroke-width="6"/>
<line x1="7.16269" y1="139.163" x2="7.16269" y2="111.488" stroke="white" stroke-width="6"/>
<line x1="140" y1="30.8372" x2="140" y2="3.16274" stroke="white" stroke-width="6"/>
<line x1="140" y1="139.163" x2="140" y2="111.488" stroke="white" stroke-width="6"/>
<line x1="7" y1="3.32556" x2="34.6744" y2="3.32556" stroke="white" stroke-width="6"/>
<line x1="115.326" y1="136.163" x2="143" y2="136.163" stroke="white" stroke-width="6"/>
<line x1="7" y1="136.163" x2="34.6744" y2="136.163" stroke="white" stroke-width="6"/>
<line x1="115.326" y1="3.32556" x2="143" y2="3.32556" stroke="white" stroke-width="6"/>
<rect x="30" y="240.163" width="126" height="221" rx="26" transform="rotate(-90 30 240.163)" fill="#7AC142"/>
<rect x="30" y="240.163" width="126" height="221" rx="26" transform="rotate(-90 30 240.163)" stroke="white" stroke-width="8"/>
<path d="M50 192.163V162.163" stroke="white" stroke-width="8" stroke-linecap="round"/>
<circle cx="221" cy="177.163" r="11" transform="rotate(-90 221 177.163)" stroke="white" stroke-width="6"/>
<path d="M173.233 196.978V156.353" stroke="white" stroke-width="8" stroke-linecap="round"/>
<path d="M140.116 209.163L172.497 197.314" stroke="white" stroke-width="8" stroke-linecap="round"/>
<path d="M140.116 167.861L172.497 156.012" stroke="white" stroke-width="8" stroke-linecap="round"/>
<path d="M140.116 144.163L172.497 156.012" stroke="white" stroke-width="8" stroke-linecap="round"/>
<path d="M140.116 208.489V167.864" stroke="white" stroke-width="8" stroke-linecap="round"/>
<path d="M107 196.978V156.353" stroke="white" stroke-width="8" stroke-linecap="round"/>
<path d="M140.116 209.163L107.736 197.314" stroke="white" stroke-width="8" stroke-linecap="round"/>
<path d="M140.116 167.861L107.736 156.012" stroke="white" stroke-width="8" stroke-linecap="round"/>
<path d="M140.116 144.163L107.736 156.012" stroke="white" stroke-width="8" stroke-linecap="round"/>
<path d="M32.4817 228.163L4.7613 239.634" stroke="white" stroke-width="8" stroke-linecap="round"/>
<path d="M108 197.163L50 221.163" stroke="white" stroke-width="8" stroke-linecap="round"/>
<path d="M247 228.163L274.574 239.981" stroke="white" stroke-width="8" stroke-linecap="round"/>
<path d="M175 197.163L232.695 221.889" stroke="white" stroke-width="8" stroke-linecap="round"/>
<path d="M141 110.165V80.1652" stroke="white" stroke-width="8" stroke-linecap="round"/>
<path d="M141 144.17V129.17" stroke="white" stroke-width="8" stroke-linecap="round"/>
</svg>
