<svg width="230" height="152" viewBox="0 0 230 152" fill="none" xmlns="http://www.w3.org/2000/svg">
<g clip-path="url(#clip0_143_164)">
<path d="M159.14 118.554L96.1851 126.047C93.1319 126.41 90.8798 123.247 92.2133 120.468L143.371 13.8556C144.606 11.2811 148.089 10.8666 149.894 13.0792L224.646 104.706C226.594 107.094 225.147 110.698 222.094 111.061L159.14 118.554Z" fill="#0079C2"/>
<path d="M132.687 61.0874C134.183 60.9095 135.539 61.9815 135.718 63.4819C135.897 64.9823 134.829 66.3429 133.334 66.5209C131.839 66.6989 130.482 65.6268 130.303 64.1264C130.125 62.626 131.192 61.2654 132.687 61.0874Z" fill="#1E1E1E"/>
<path d="M157.441 58.1414C158.936 57.9634 160.293 59.0355 160.472 60.5359C160.65 62.0363 159.583 63.3969 158.088 63.5749C156.592 63.7528 155.235 62.6808 155.057 61.1804C154.878 59.6799 155.946 58.3193 157.441 58.1414Z" fill="#1E1E1E"/>
<path d="M125.622 80.8214C135.234 79.6774 142.096 70.9307 140.948 61.2852C139.8 51.6396 131.077 44.7478 121.465 45.8919C111.852 47.0359 104.991 55.7826 106.139 65.4281C107.287 75.0737 116.01 81.9655 125.622 80.8214Z" stroke="#D9D9D9" stroke-width="2"/>
<path d="M165.846 76.0339C175.459 74.8899 182.321 66.1432 181.173 56.4977C180.025 46.8522 171.301 39.9604 161.689 41.1044C152.077 42.2485 145.215 50.9951 146.363 60.6407C147.511 70.2862 156.234 77.178 165.846 76.0339Z" stroke="#D9D9D9" stroke-width="2"/>
<path d="M141.474 62.4033C143.03 61.0472 143.98 60.6352 146.115 61.8509" stroke="#D9D9D9" stroke-width="2"/>
<path d="M141.849 82.0388C145.546 84.5343 148.948 84.1912 151.905 80.842" stroke="#1E1E1E" stroke-width="2" stroke-linecap="round"/>
</g>
<g clip-path="url(#clip1_143_164)">
<path d="M76.5849 147.72L13.2849 151.258C10.215 151.429 8.1653 148.131 9.67005 145.442L67.3992 42.2394C68.7933 39.7472 72.2952 39.5515 73.9583 41.8727L142.829 137.999C144.624 140.504 142.955 144.01 139.885 144.181L76.5849 147.72Z" fill="#7AC142"/>
<path d="M69.3121 95.4955C72.3855 97.1262 73.9047 96.9249 76.3802 95.2909" stroke="#1E1E1E" stroke-width="2" stroke-linecap="round"/>
<path d="M59.0044 83.9655C60.9344 83.8577 62.5615 84.8878 62.6385 86.2663C62.7156 87.6449 61.2135 88.8499 59.2835 88.9577C57.3535 89.0656 55.7265 88.0355 55.6494 86.657C55.5724 85.2784 57.0745 84.0734 59.0044 83.9655Z" fill="#1E1E1E"/>
<path d="M84.4408 82.1639C86.3708 82.056 87.9979 83.0861 88.0749 84.4647C88.152 85.8432 86.6499 87.0482 84.7199 87.1561C82.7899 87.264 81.1629 86.2339 81.0858 84.8553C81.0088 83.4768 82.5109 82.2718 84.4408 82.1639Z" fill="#1E1E1E"/>
<path d="M57.2402 86.5778L53.2657 86.1268" stroke="#1E1E1E" stroke-linecap="round"/>
<path d="M58.0806 85.5822L55.3251 83.2567" stroke="#1E1E1E" stroke-linecap="round"/>
<path d="M90.5937 85.3297L86.6192 84.8788" stroke="#1E1E1E" stroke-linecap="round"/>
<path d="M89.1719 81.968L86.0943 83.8464" stroke="#1E1E1E" stroke-linecap="round"/>
<ellipse cx="86.68" cy="89.931" rx="4.91231" ry="3.27488" transform="rotate(-9.69618 86.68 89.931)" fill="#D83737" fill-opacity="0.49"/>
<ellipse cx="56.8424" cy="91.7751" rx="4.91231" ry="3.27488" transform="rotate(1.24226 56.8424 91.7751)" fill="#D83737" fill-opacity="0.49"/>
</g>
<defs>
<clipPath id="clip0_143_164">
<rect width="141" height="111" fill="white" transform="translate(76.0151 16.6641) rotate(-6.78734)"/>
</clipPath>
<clipPath id="clip1_143_164">
<rect width="141" height="111" fill="white" transform="translate(0 40.827) rotate(-3.19926)"/>
</clipPath>
</defs>
</svg>
