<svg width="265" height="319" viewBox="0 0 265 319" fill="none" xmlns="http://www.w3.org/2000/svg">
<rect x="43" y="4" width="178" height="311" rx="26" stroke="white" stroke-width="8"/>
<path d="M117 24H147" stroke="white" stroke-width="8" stroke-linecap="round"/>
<circle cx="132" cy="285" r="11" stroke="white" stroke-width="6"/>
<path d="M176.054 173.808V103.959" stroke="white" stroke-width="8" stroke-linecap="round"/>
<path d="M132.748 194.758L175.091 174.385" stroke="white" stroke-width="8" stroke-linecap="round"/>
<path d="M132.748 123.745L175.091 103.372" stroke="white" stroke-width="8" stroke-linecap="round"/>
<path d="M132.748 83L175.091 103.372" stroke="white" stroke-width="8" stroke-linecap="round"/>
<path d="M132.748 193.598V123.75" stroke="white" stroke-width="8" stroke-linecap="round"/>
<path d="M89.4416 173.808V103.959" stroke="white" stroke-width="8" stroke-linecap="round"/>
<path d="M132.748 194.758L90.4043 174.385" stroke="white" stroke-width="8" stroke-linecap="round"/>
<path d="M132.748 123.745L90.4043 103.372" stroke="white" stroke-width="8" stroke-linecap="round"/>
<path d="M132.748 83L90.4043 103.372" stroke="white" stroke-width="8" stroke-linecap="round"/>
<path d="M222.939 193.027L260.997 174.818" stroke="white" stroke-width="8" stroke-linecap="round"/>
<path d="M133.398 236.217L206.55 201.214" stroke="white" stroke-width="8" stroke-linecap="round"/>
<path d="M222.936 155.567L261 174.824" stroke="white" stroke-width="8" stroke-linecap="round"/>
<path d="M41.6168 192.69L5.54353 175.337" stroke="white" stroke-width="8" stroke-linecap="round"/>
<path d="M133.361 236.293L60.282 201.138" stroke="white" stroke-width="8" stroke-linecap="round"/>
<path d="M41.8873 155.117L3.99998 173.596" stroke="white" stroke-width="8" stroke-linecap="round"/>
<path d="M89.5202 134.528L60.3452 148.758" stroke="white" stroke-width="8" stroke-linecap="round"/>
<path d="M177.303 134.528L206.341 149.025" stroke="white" stroke-width="8" stroke-linecap="round"/>
</svg>
