<svg width="293" height="188" viewBox="0 0 293 188" fill="none" xmlns="http://www.w3.org/2000/svg">
<path d="M181.5 93.5C181.5 140.444 143.444 178.5 96.5 178.5C49.5558 178.5 11.5 140.444 11.5 93.5C11.5 46.5558 49.5558 8.5 96.5 8.5C143.444 8.5 181.5 46.5558 181.5 93.5Z" stroke="#AAAAAA" stroke-width="0.7"/>
<path d="M234 8.5C205.005 8.5 181.5 32.0051 181.5 61C181.5 89.9949 205.005 113.5 234 113.5C262.995 113.5 286.5 89.9949 286.5 61C286.5 32.0051 262.995 8.5 234 8.5Z" stroke="#AAAAAA" stroke-width="0.7"/>
<path d="M254 113.5C236.051 113.5 221.5 128.051 221.5 146C221.5 163.949 236.051 178.5 254 178.5C271.949 178.5 286.5 163.949 286.5 146C286.5 128.051 271.949 113.5 254 113.5Z" stroke="#AAAAAA" stroke-width="0.7"/>
<path d="M181.5 158.5C181.5 169.546 190.454 178.5 201.5 178.5C212.546 178.5 221.5 169.546 221.5 158.5C221.5 147.454 212.546 138.5 201.5 138.5C190.454 138.5 181.5 147.454 181.5 158.5Z" stroke="#AAAAAA" stroke-width="0.7"/>
<path d="M181.5 126C181.5 132.904 187.096 138.5 194 138.5C200.904 138.5 206 132.904 206 126C206 119.096 200.904 113.5 194 113.5C187.096 113.5 181.5 119.096 181.5 126Z" stroke="#AAAAAA" stroke-width="0.7"/>
<path d="M206 121C206 125.142 209.358 128.5 213.5 128.5C217.642 128.5 221 125.142 221 121C221 116.858 217.642 113.5 213.5 113.5C209.358 113.5 206 116.858 206 121Z" stroke="#AAAAAA" stroke-width="0.7"/>
<path d="M211 133.5C211 130.739 213.239 128.5 216 128.5C218.761 128.5 221 130.739 221 133.5C221 136.261 218.761 138.5 216 138.5C213.239 138.5 211 136.261 211 133.5Z" stroke="#AAAAAA" stroke-width="0.7"/>
<path d="M211 136C211 137.381 209.881 138.5 208.5 138.5C207.119 138.5 206 137.381 206 136C206 134.619 207.119 133.5 208.5 133.5C209.881 133.5 211 134.619 211 136Z" stroke="#AAAAAA" stroke-width="0.7"/>
<path d="M10.5 0.5V187.5M0.5 179H292.5M286.5 187.5V0.5M292.5 7.5H0.5M181 185V0.5M221 185V108M175 113.5H292.5M175 138.5H226M206 108V142.5M202.5 128.5H226M211 125.5V142.5M202.5 133.5H213.5" stroke="#AAAAAA" stroke-width="0.7"/>
<path d="M10.5 179C10.5 88 88.5 7 181 7.5C269 12 289 81 286.5 113.5C284.914 156.423 250.584 179.635 221 179C190.967 176.581 180.63 154.008 181 138.5C181.37 122.992 191.445 112.781 206 113.5C216.5 114.019 221.518 121.766 221 128.5C220.5 137 214.5 139 210.5 138C207.5 137 206.5 135 206.5 133.5C206.5 132 207 129.5 210 129.5" stroke="black" stroke-width="2" stroke-linecap="round"/>
<path d="M91.998 91.4395C92.4342 91.4395 92.8216 91.5225 93.1602 91.6885C93.502 91.8545 93.7705 92.0986 93.9658 92.4209C94.1611 92.7432 94.2588 93.1403 94.2588 93.6123C94.2588 94.1266 94.1514 94.571 93.9365 94.9453C93.7249 95.3164 93.4076 95.6012 92.9844 95.7998C92.5645 95.9984 92.0404 96.0977 91.4121 96.0977C91.0378 96.0977 90.6846 96.0651 90.3525 96C90.0238 95.9382 89.7357 95.8421 89.4883 95.7119V94.4082C89.7357 94.5384 90.0319 94.6491 90.377 94.7402C90.7253 94.8281 91.0524 94.8721 91.3584 94.8721C91.6579 94.8721 91.9102 94.833 92.1152 94.7549C92.3203 94.6735 92.4749 94.5498 92.5791 94.3838C92.6865 94.2145 92.7402 93.9997 92.7402 93.7393C92.7402 93.391 92.623 93.124 92.3887 92.9385C92.1543 92.7529 91.7946 92.6602 91.3096 92.6602C91.124 92.6602 90.9303 92.6781 90.7285 92.7139C90.5299 92.7497 90.3639 92.7855 90.2305 92.8213L89.6299 92.499L89.8984 88.8613H93.7705V90.1406H91.2217L91.0898 91.542C91.2005 91.5192 91.321 91.4964 91.4512 91.4736C91.5814 91.4508 91.7637 91.4395 91.998 91.4395ZM97.7207 91.4395C98.1569 91.4395 98.5443 91.5225 98.8828 91.6885C99.2246 91.8545 99.4932 92.0986 99.6885 92.4209C99.8838 92.7432 99.9814 93.1403 99.9814 93.6123C99.9814 94.1266 99.874 94.571 99.6592 94.9453C99.4476 95.3164 99.1302 95.6012 98.707 95.7998C98.2871 95.9984 97.763 96.0977 97.1348 96.0977C96.7604 96.0977 96.4072 96.0651 96.0752 96C95.7464 95.9382 95.4583 95.8421 95.2109 95.7119V94.4082C95.4583 94.5384 95.7546 94.6491 96.0996 94.7402C96.4479 94.8281 96.7751 94.8721 97.0811 94.8721C97.3805 94.8721 97.6328 94.833 97.8379 94.7549C98.043 94.6735 98.1976 94.5498 98.3018 94.3838C98.4092 94.2145 98.4629 93.9997 98.4629 93.7393C98.4629 93.391 98.3457 93.124 98.1113 92.9385C97.877 92.7529 97.5173 92.6602 97.0322 92.6602C96.8467 92.6602 96.653 92.6781 96.4512 92.7139C96.2526 92.7497 96.0866 92.7855 95.9531 92.8213L95.3525 92.499L95.6211 88.8613H99.4932V90.1406H96.9443L96.8125 91.542C96.9232 91.5192 97.0436 91.4964 97.1738 91.4736C97.304 91.4508 97.4863 91.4395 97.7207 91.4395Z" fill="black"/>
<path d="M235.112 61.458C235.112 61.7868 235.044 62.0716 234.907 62.3125C234.771 62.5534 234.585 62.7503 234.351 62.9033C234.119 63.0563 233.859 63.1686 233.569 63.2402V63.2695C234.142 63.3411 234.577 63.5169 234.873 63.7969C235.173 64.0768 235.322 64.4512 235.322 64.9199C235.322 65.3366 235.22 65.7093 235.015 66.0381C234.813 66.3669 234.5 66.6257 234.077 66.8145C233.654 67.0033 233.109 67.0977 232.441 67.0977C232.048 67.0977 231.68 67.0651 231.338 67C230.999 66.9382 230.68 66.8421 230.381 66.7119V65.4277C230.687 65.584 231.007 65.7028 231.343 65.7842C231.678 65.8623 231.991 65.9014 232.28 65.9014C232.821 65.9014 233.198 65.8086 233.413 65.623C233.631 65.4342 233.74 65.1706 233.74 64.832C233.74 64.6335 233.69 64.4658 233.589 64.3291C233.488 64.1924 233.312 64.0882 233.062 64.0166C232.814 63.945 232.467 63.9092 232.021 63.9092H231.479V62.752H232.031C232.471 62.752 232.804 62.7113 233.032 62.6299C233.263 62.5452 233.42 62.4313 233.501 62.2881C233.586 62.1416 233.628 61.9756 233.628 61.79C233.628 61.5361 233.55 61.3376 233.394 61.1943C233.237 61.0511 232.977 60.9795 232.612 60.9795C232.384 60.9795 232.176 61.0088 231.987 61.0674C231.802 61.1227 231.634 61.1911 231.484 61.2725C231.335 61.3506 231.203 61.4271 231.089 61.502L230.391 60.4619C230.671 60.2601 230.998 60.0924 231.372 59.959C231.75 59.8255 232.199 59.7588 232.72 59.7588C233.455 59.7588 234.038 59.9069 234.468 60.2031C234.897 60.4993 235.112 60.9176 235.112 61.458ZM241.274 65.5205H240.415V67H238.94V65.5205H235.894V64.4707L239.023 59.8613H240.415V64.3486H241.274V65.5205ZM238.94 64.3486V63.1377C238.94 63.0238 238.942 62.8887 238.945 62.7324C238.952 62.5762 238.958 62.4199 238.965 62.2637C238.971 62.1074 238.978 61.9691 238.984 61.8486C238.994 61.7249 239.001 61.6387 239.004 61.5898H238.965C238.903 61.7233 238.838 61.8535 238.77 61.9805C238.701 62.1042 238.621 62.2344 238.53 62.3711L237.222 64.3486H238.94Z" fill="black"/>
<path d="M254.391 150H249.4V148.95L251.192 147.139C251.554 146.768 251.843 146.458 252.062 146.211C252.283 145.96 252.442 145.732 252.54 145.527C252.641 145.322 252.691 145.103 252.691 144.868C252.691 144.585 252.612 144.373 252.452 144.233C252.296 144.09 252.086 144.019 251.822 144.019C251.546 144.019 251.277 144.082 251.017 144.209C250.756 144.336 250.484 144.517 250.201 144.751L249.381 143.779C249.586 143.604 249.802 143.438 250.03 143.281C250.261 143.125 250.528 143 250.831 142.905C251.137 142.808 251.503 142.759 251.93 142.759C252.398 142.759 252.8 142.843 253.136 143.013C253.474 143.182 253.735 143.413 253.917 143.706C254.099 143.996 254.19 144.325 254.19 144.692C254.19 145.086 254.112 145.446 253.956 145.771C253.8 146.097 253.572 146.419 253.272 146.738C252.976 147.057 252.618 147.41 252.198 147.798L251.28 148.662V148.73H254.391V150ZM258.854 150H257.345V145.869C257.345 145.755 257.346 145.615 257.35 145.449C257.353 145.28 257.358 145.107 257.364 144.932C257.371 144.753 257.377 144.591 257.384 144.448C257.348 144.491 257.275 144.564 257.164 144.668C257.057 144.769 256.956 144.86 256.861 144.941L256.041 145.601L255.313 144.692L257.613 142.861H258.854V150Z" fill="black"/>
<path d="M200.131 163H198.622V158.869C198.622 158.755 198.624 158.615 198.627 158.449C198.63 158.28 198.635 158.107 198.642 157.932C198.648 157.753 198.655 157.591 198.661 157.448C198.625 157.491 198.552 157.564 198.441 157.668C198.334 157.769 198.233 157.86 198.139 157.941L197.318 158.601L196.591 157.692L198.891 155.861H200.131V163ZM206.835 157.458C206.835 157.787 206.767 158.072 206.63 158.312C206.493 158.553 206.308 158.75 206.073 158.903C205.842 159.056 205.582 159.169 205.292 159.24V159.27C205.865 159.341 206.299 159.517 206.596 159.797C206.895 160.077 207.045 160.451 207.045 160.92C207.045 161.337 206.942 161.709 206.737 162.038C206.535 162.367 206.223 162.626 205.8 162.814C205.377 163.003 204.831 163.098 204.164 163.098C203.77 163.098 203.402 163.065 203.061 163C202.722 162.938 202.403 162.842 202.104 162.712V161.428C202.41 161.584 202.73 161.703 203.065 161.784C203.401 161.862 203.713 161.901 204.003 161.901C204.543 161.901 204.921 161.809 205.136 161.623C205.354 161.434 205.463 161.171 205.463 160.832C205.463 160.633 205.412 160.466 205.312 160.329C205.211 160.192 205.035 160.088 204.784 160.017C204.537 159.945 204.19 159.909 203.744 159.909H203.202V158.752H203.754C204.193 158.752 204.527 158.711 204.755 158.63C204.986 158.545 205.142 158.431 205.224 158.288C205.308 158.142 205.351 157.976 205.351 157.79C205.351 157.536 205.272 157.338 205.116 157.194C204.96 157.051 204.7 156.979 204.335 156.979C204.107 156.979 203.899 157.009 203.71 157.067C203.524 157.123 203.357 157.191 203.207 157.272C203.057 157.351 202.925 157.427 202.812 157.502L202.113 156.462C202.393 156.26 202.72 156.092 203.095 155.959C203.472 155.826 203.922 155.759 204.442 155.759C205.178 155.759 205.761 155.907 206.19 156.203C206.62 156.499 206.835 156.918 206.835 157.458Z" fill="black"/>
<path d="M193.861 122.769C194.271 122.769 194.649 122.832 194.994 122.959C195.342 123.086 195.621 123.278 195.829 123.535C196.037 123.789 196.142 124.108 196.142 124.492C196.142 124.779 196.085 125.029 195.971 125.244C195.86 125.459 195.709 125.648 195.517 125.811C195.325 125.97 195.106 126.11 194.862 126.23C195.116 126.364 195.357 126.52 195.585 126.699C195.813 126.875 195.998 127.082 196.142 127.319C196.288 127.557 196.361 127.834 196.361 128.149C196.361 128.547 196.256 128.892 196.044 129.185C195.832 129.474 195.539 129.699 195.165 129.858C194.791 130.018 194.356 130.098 193.861 130.098C193.327 130.098 192.873 130.021 192.499 129.868C192.125 129.715 191.84 129.497 191.645 129.214C191.449 128.927 191.352 128.586 191.352 128.188C191.352 127.863 191.412 127.58 191.532 127.339C191.656 127.098 191.822 126.891 192.03 126.719C192.239 126.543 192.468 126.393 192.719 126.27C192.507 126.136 192.313 125.985 192.138 125.815C191.965 125.646 191.827 125.452 191.723 125.234C191.622 125.016 191.571 124.766 191.571 124.482C191.571 124.105 191.677 123.789 191.889 123.535C192.104 123.281 192.385 123.091 192.733 122.964C193.082 122.834 193.458 122.769 193.861 122.769ZM192.748 128.101C192.748 128.358 192.839 128.571 193.021 128.74C193.207 128.906 193.48 128.989 193.842 128.989C194.216 128.989 194.496 128.91 194.682 128.75C194.867 128.587 194.96 128.374 194.96 128.11C194.96 127.928 194.906 127.769 194.799 127.632C194.695 127.495 194.563 127.373 194.403 127.266C194.244 127.155 194.083 127.052 193.92 126.958L193.788 126.89C193.58 126.984 193.397 127.09 193.241 127.207C193.088 127.324 192.968 127.456 192.88 127.603C192.792 127.749 192.748 127.915 192.748 128.101ZM193.852 123.872C193.604 123.872 193.399 123.936 193.236 124.062C193.074 124.189 192.992 124.368 192.992 124.6C192.992 124.762 193.031 124.906 193.109 125.029C193.191 125.15 193.297 125.256 193.427 125.347C193.56 125.438 193.705 125.522 193.861 125.601C194.011 125.529 194.151 125.449 194.281 125.361C194.411 125.273 194.517 125.168 194.599 125.044C194.68 124.92 194.721 124.772 194.721 124.6C194.721 124.368 194.638 124.189 194.472 124.062C194.309 123.936 194.102 123.872 193.852 123.872Z" fill="black"/>
<path d="M213.398 120.352C213.747 120.352 214.057 120.418 214.328 120.551C214.602 120.684 214.816 120.879 214.973 121.137C215.129 121.395 215.207 121.712 215.207 122.09C215.207 122.501 215.121 122.857 214.949 123.156C214.78 123.453 214.526 123.681 214.188 123.84C213.852 123.999 213.432 124.078 212.93 124.078C212.63 124.078 212.348 124.052 212.082 124C211.819 123.951 211.589 123.874 211.391 123.77V122.727C211.589 122.831 211.826 122.919 212.102 122.992C212.38 123.062 212.642 123.098 212.887 123.098C213.126 123.098 213.328 123.066 213.492 123.004C213.656 122.939 213.78 122.84 213.863 122.707C213.949 122.572 213.992 122.4 213.992 122.191C213.992 121.913 213.898 121.699 213.711 121.551C213.523 121.402 213.236 121.328 212.848 121.328C212.699 121.328 212.544 121.342 212.383 121.371C212.224 121.4 212.091 121.428 211.984 121.457L211.504 121.199L211.719 118.289H214.816V119.312H212.777L212.672 120.434C212.76 120.415 212.857 120.397 212.961 120.379C213.065 120.361 213.211 120.352 213.398 120.352Z" fill="black"/>
<path d="M216.579 131.121C216.579 131.351 216.531 131.55 216.435 131.719C216.339 131.887 216.209 132.025 216.045 132.132C215.884 132.239 215.701 132.318 215.499 132.368V132.389C215.9 132.439 216.204 132.562 216.411 132.758C216.621 132.954 216.726 133.216 216.726 133.544C216.726 133.836 216.654 134.097 216.51 134.327C216.369 134.557 216.15 134.738 215.854 134.87C215.558 135.002 215.176 135.068 214.709 135.068C214.433 135.068 214.176 135.046 213.937 135C213.7 134.957 213.476 134.889 213.267 134.798V133.899C213.481 134.009 213.705 134.092 213.94 134.149C214.175 134.204 214.393 134.231 214.596 134.231C214.974 134.231 215.239 134.166 215.389 134.036C215.542 133.904 215.618 133.719 215.618 133.482C215.618 133.343 215.583 133.226 215.512 133.13C215.442 133.035 215.319 132.962 215.143 132.912C214.97 132.861 214.727 132.836 214.415 132.836H214.036V132.026H214.422C214.729 132.026 214.963 131.998 215.123 131.941C215.284 131.882 215.394 131.802 215.451 131.702C215.51 131.599 215.54 131.483 215.54 131.353C215.54 131.175 215.485 131.036 215.375 130.936C215.266 130.836 215.084 130.786 214.829 130.786C214.669 130.786 214.523 130.806 214.391 130.847C214.261 130.886 214.144 130.934 214.039 130.991C213.934 131.045 213.842 131.099 213.762 131.151L213.273 130.423C213.469 130.282 213.698 130.165 213.96 130.071C214.225 129.978 214.539 129.931 214.904 129.931C215.419 129.931 215.827 130.035 216.127 130.242C216.428 130.45 216.579 130.742 216.579 131.121Z" fill="black"/>
</svg>
