<svg width="312" height="341" viewBox="0 0 312 341" fill="none" xmlns="http://www.w3.org/2000/svg">
<path d="M97 125V340.5M97 125H2M97 125L190 1M97 125L216.903 215.139L311 89.5M7 119.5V221M0.5 215L216.903 214.802L217 340M225 335H89.5V335.5M182.5 1.5L311 98" stroke="#AAAAAA" stroke-width="0.7"/>
<path d="M97 204V125.6C97 125.353 97.2822 125.212 97.48 125.36L216.28 214.46C216.511 214.633 216.388 215 216.1 215H108M97 204V214.7C97 214.866 97.1343 215 97.3 215H108M97 204H107.7C107.866 204 108 204.134 108 204.3V215" stroke="black" stroke-width="2"/>
<path d="M82.5977 176.117C81.9492 176.117 81.3965 176 80.9395 175.766C80.4824 175.527 80.1348 175.16 79.8965 174.664C79.6582 174.168 79.5391 173.533 79.5391 172.76C79.5391 171.959 79.6738 171.307 79.9434 170.803C80.2168 170.295 80.5938 169.922 81.0742 169.684C81.5586 169.445 82.1191 169.326 82.7559 169.326C83.209 169.326 83.5996 169.371 83.9277 169.461C84.2598 169.547 84.5488 169.65 84.7949 169.771L84.2676 171.154C83.9863 171.041 83.7246 170.949 83.4824 170.879C83.2402 170.805 82.998 170.768 82.7559 170.768C82.4434 170.768 82.1836 170.842 81.9766 170.99C81.7695 171.135 81.6152 171.354 81.5137 171.646C81.4121 171.939 81.3613 172.307 81.3613 172.748C81.3613 173.182 81.416 173.541 81.5254 173.826C81.6348 174.111 81.793 174.324 82 174.465C82.207 174.602 82.459 174.67 82.7559 174.67C83.127 174.67 83.457 174.621 83.7461 174.523C84.0352 174.422 84.3164 174.281 84.5898 174.102V175.631C84.3164 175.803 84.0293 175.926 83.7285 176C83.4316 176.078 83.0547 176.117 82.5977 176.117Z" fill="black"/>
<path d="M154.725 225.883V228.004C154.725 228.25 154.717 228.494 154.701 228.736C154.689 228.979 154.674 229.166 154.654 229.299H154.725C154.896 229.029 155.131 228.801 155.428 228.613C155.725 228.422 156.109 228.326 156.582 228.326C157.316 228.326 157.912 228.613 158.369 229.188C158.826 229.762 159.055 230.604 159.055 231.713C159.055 232.459 158.949 233.086 158.738 233.594C158.527 234.098 158.232 234.479 157.854 234.736C157.475 234.99 157.035 235.117 156.535 235.117C156.055 235.117 155.676 235.031 155.398 234.859C155.121 234.688 154.896 234.494 154.725 234.279H154.602L154.303 235H152.938V225.883H154.725ZM156.008 229.756C155.695 229.756 155.447 229.82 155.264 229.949C155.08 230.078 154.945 230.271 154.859 230.529C154.777 230.787 154.732 231.113 154.725 231.508V231.701C154.725 232.338 154.818 232.826 155.006 233.166C155.193 233.502 155.535 233.67 156.031 233.67C156.398 233.67 156.689 233.5 156.904 233.16C157.123 232.82 157.232 232.33 157.232 231.689C157.232 231.049 157.123 230.566 156.904 230.242C156.686 229.918 156.387 229.756 156.008 229.756Z" fill="black"/>
<path d="M170.621 153.314C171.5 153.314 172.174 153.506 172.643 153.889C173.111 154.271 173.346 154.854 173.346 155.635V160H172.098L171.752 159.109H171.705C171.518 159.344 171.326 159.535 171.131 159.684C170.936 159.832 170.711 159.941 170.457 160.012C170.203 160.082 169.895 160.117 169.531 160.117C169.145 160.117 168.797 160.043 168.488 159.895C168.184 159.746 167.943 159.52 167.768 159.215C167.592 158.906 167.504 158.516 167.504 158.043C167.504 157.348 167.748 156.836 168.236 156.508C168.725 156.176 169.457 155.992 170.434 155.957L171.57 155.922V155.635C171.57 155.291 171.48 155.039 171.301 154.879C171.121 154.719 170.871 154.639 170.551 154.639C170.234 154.639 169.924 154.684 169.619 154.773C169.314 154.863 169.01 154.977 168.705 155.113L168.113 153.906C168.461 153.723 168.85 153.578 169.279 153.473C169.713 153.367 170.16 153.314 170.621 153.314ZM171.57 156.965L170.879 156.988C170.301 157.004 169.898 157.107 169.672 157.299C169.449 157.49 169.338 157.742 169.338 158.055C169.338 158.328 169.418 158.523 169.578 158.641C169.738 158.754 169.947 158.811 170.205 158.811C170.588 158.811 170.91 158.697 171.172 158.471C171.438 158.244 171.57 157.922 171.57 157.504V156.965Z" fill="black"/>
</svg>
